<svg version="1.1" id="Layer_1" xmlns="http://www.w3.org/2000/svg" xmlns:xlink="http://www.w3.org/1999/xlink" x="0px" y="0px"
	 width="100%" viewBox="0 0 843 596" enable-background="new 0 0 843 596" xml:space="preserve">
<path fill="#FFFFFF" opacity="1.000000" stroke="none" 
	d="
M511.000000,597.000000 
	C340.666656,597.000000 170.833328,597.000000 1.000000,597.000000 
	C1.000000,398.333344 1.000000,199.666672 1.000000,1.000000 
	C282.000000,1.000000 563.000000,1.000000 844.000000,1.000000 
	C844.000000,199.666672 844.000000,398.333344 844.000000,597.000000 
	C733.166687,597.000000 622.333313,597.000000 511.000000,597.000000 
M487.397644,32.001648 
	C476.517517,29.651926 465.711914,26.839476 454.738129,25.071070 
	C441.393921,22.920681 427.945984,20.880390 414.472687,20.215918 
	C401.101379,19.556471 387.627899,20.381689 374.227478,21.090168 
	C363.948608,21.633615 353.574768,22.268587 343.487427,24.163271 
	C321.008911,28.385378 298.905670,34.004276 277.883331,43.489052 
	C252.507767,54.937897 229.613159,69.461937 212.479797,91.967110 
	C202.591629,104.955498 195.612122,119.360596 194.196548,135.565857 
	C192.344315,156.769989 195.639725,177.580307 201.909454,197.970825 
	C209.168808,221.579773 218.612457,244.253342 230.496780,265.859192 
	C239.349319,281.953247 248.385086,297.985535 258.193909,313.505188 
	C272.255096,335.752930 287.541321,357.200500 305.298248,376.706268 
	C317.471558,390.078522 329.980835,403.156830 342.649689,416.062500 
	C353.879852,427.502716 366.659576,437.061768 380.573456,445.047760 
	C390.108124,450.520325 400.395660,455.342529 411.345673,453.640137 
	C421.187561,452.110046 430.929596,448.395721 440.076263,444.238129 
	C463.192535,433.730713 482.468842,417.532227 500.288635,399.869080 
	C512.254150,388.008759 522.803833,374.690277 533.671204,361.758789 
	C550.388550,341.866028 563.818970,319.752960 575.953003,296.876404 
	C589.420166,271.486481 599.925476,244.921478 606.642273,216.883926 
	C610.343384,201.434540 612.463989,185.763397 612.778564,169.983963 
	C612.975769,160.088364 611.347351,150.100281 609.935364,140.240005 
	C606.718933,117.779419 596.747375,98.402641 581.338684,81.974487 
	C570.115417,70.008621 556.047913,61.774677 541.763306,53.946926 
	C524.736328,44.616379 506.500031,38.299725 487.397644,32.001648 
M307.973389,470.931458 
	C303.868317,467.244995 301.735229,470.123016 299.964233,473.475189 
	C296.209076,480.583038 292.586884,487.761139 288.722565,495.275116 
	C284.702606,487.378998 281.059509,479.892883 277.047943,472.609680 
	C276.200073,471.070343 274.003937,470.273621 272.429016,469.134735 
	C271.286041,470.845428 269.204041,472.528992 269.153717,474.271240 
	C268.846405,484.913422 269.053558,495.569336 268.963959,506.219604 
	C268.940643,508.991974 269.950562,510.059967 272.760925,510.063873 
	C275.576599,510.067780 277.167786,509.438873 277.043671,506.196930 
	C276.869720,501.652771 276.999756,497.096985 276.999756,492.546143 
	C279.885712,496.825165 281.893982,501.328430 284.316284,505.596710 
	C285.133820,507.037292 287.084442,508.863434 288.367676,508.754364 
	C290.020447,508.613892 292.035400,507.024323 292.989502,505.494598 
	C295.401703,501.626923 297.307922,497.443665 300.000031,492.265045 
	C300.000031,497.166260 300.072540,500.772369 299.978394,504.374115 
	C299.894440,507.585083 300.597626,509.993195 304.471191,510.006714 
	C308.319458,510.020142 309.051483,507.670532 309.025909,504.432159 
	C308.952332,495.113098 309.045502,485.792633 308.955536,476.473846 
	C308.940399,474.905609 308.339874,473.343048 307.973389,470.931458 
M551.000000,484.334900 
	C550.975952,474.939148 545.208557,469.068451 535.921509,469.003113 
	C533.090515,468.983185 530.254944,469.099609 527.429321,468.975403 
	C523.716797,468.812195 521.935120,470.316315 521.968689,474.179443 
	C522.059937,484.670410 522.087341,495.163879 521.947388,505.653778 
	C521.905029,508.829620 522.848633,510.125427 526.200195,510.087341 
	C529.453125,510.050354 530.168030,508.556976 530.030212,505.753876 
	C529.892212,502.945801 529.999878,500.125671 529.999878,495.777893 
	C532.598267,497.509521 534.589783,498.355957 535.897827,499.815063 
	C538.159668,502.338287 539.625366,505.678925 542.148438,507.826813 
	C543.744995,509.186005 546.653137,509.004425 548.973022,509.513916 
	C548.920959,507.108337 549.490967,504.454010 548.654358,502.362183 
	C547.679688,499.925140 545.474731,497.980133 543.803650,495.821594 
	C544.278137,495.955963 544.752625,496.090332 545.227112,496.224701 
	C547.151428,492.548187 549.075684,488.871704 551.000000,484.334900 
M350.738342,469.000000 
	C346.412109,468.569366 343.799469,469.692566 343.925568,474.872528 
	C344.176849,485.194824 344.068604,495.528290 343.956299,505.855469 
	C343.924622,508.765503 344.750519,510.102142 347.903900,510.074677 
	C350.850433,510.048950 352.228088,509.164917 352.038269,506.046814 
	C351.858917,503.100098 351.999786,500.133850 351.999786,497.176208 
	C352.398590,496.851166 352.797394,496.526154 353.196198,496.201111 
	C355.112762,497.653442 357.273254,498.878937 358.886353,500.613464 
	C361.080505,502.972809 362.534363,506.096130 364.935730,508.158081 
	C366.317993,509.344940 368.943329,509.084045 371.009094,509.474823 
	C371.038727,507.197510 371.748535,504.629974 370.931061,502.714081 
	C369.833191,500.140961 367.555542,498.071228 365.749695,495.740692 
	C372.612305,492.100189 374.030975,486.054688 372.822937,479.652527 
	C371.829803,474.389191 368.518524,470.314240 362.396820,469.860992 
	C358.821533,469.596313 355.249451,469.288452 350.738342,469.000000 
M607.043091,487.390808 
	C604.697449,482.283783 602.522522,477.088989 599.955811,472.095642 
	C597.617249,467.546143 594.209167,467.485504 592.062927,472.121735 
	C587.080017,482.885742 582.360596,493.777710 577.868469,504.754547 
	C577.355652,506.007477 578.637268,509.275604 579.676880,509.577545 
	C581.170166,510.011200 583.526733,508.967896 584.914734,507.825836 
	C586.168518,506.794098 586.616577,504.783081 587.434509,503.175354 
	C593.195801,503.175354 598.971802,503.175354 604.618408,503.175354 
	C605.276001,504.536957 605.975647,505.662323 606.379761,506.885345 
	C607.456970,510.144470 609.923401,510.909210 612.578430,509.642120 
	C615.035706,508.469452 615.696472,506.373077 614.210205,503.442383 
	C611.679565,498.452209 609.719543,493.172668 607.043091,487.390808 
M428.999969,483.504944 
	C426.198975,489.633881 423.088196,495.648651 420.764893,501.953613 
	C419.950409,504.164001 421.071350,507.087524 421.308502,509.685425 
	C423.359192,509.137054 425.721008,509.034790 427.358002,507.893219 
	C428.576324,507.043640 428.856018,504.848022 429.663544,503.000549 
	C434.452240,503.000549 439.435150,502.845856 444.395874,503.109467 
	C445.633240,503.175201 447.596039,504.388153 447.857361,505.420197 
	C448.899994,509.538208 451.954254,511.031525 455.120972,509.747192 
	C458.628876,508.324493 457.225861,504.820648 456.012970,502.088043 
	C451.588409,492.119965 447.229706,482.118652 442.529816,472.281006 
	C441.812561,470.779663 439.498657,469.424316 437.785950,469.233459 
	C436.655243,469.107483 434.873108,470.954224 434.093018,472.322662 
	C432.188385,475.663879 430.696686,479.240448 428.999969,483.504944 
M245.770020,494.064148 
	C249.101181,494.042725 252.459259,493.749695 255.755920,494.076477 
	C259.038452,494.401825 260.736145,492.447510 260.751129,490.044708 
	C260.765869,487.681274 259.157501,485.628021 255.848724,485.927277 
	C252.285721,486.249542 248.671021,486.000092 245.355530,486.000092 
	C245.355530,482.913605 245.355530,480.507355 245.355530,477.995209 
	C250.200760,477.995209 254.707977,478.229279 259.174896,477.906097 
	C261.787933,477.717010 264.405518,476.784576 264.020111,473.091919 
	C263.693634,469.963715 261.897644,468.944611 258.988373,468.979919 
	C253.325195,469.048706 247.659561,469.064636 241.996918,468.976807 
	C238.399979,468.921021 236.954041,470.611694 236.976196,474.114044 
	C237.042633,484.608704 237.129990,495.106567 236.929459,505.597839 
	C236.859467,509.258820 238.315155,510.172882 241.659210,510.054840 
	C247.316177,509.855164 252.985352,510.013489 258.649292,509.993988 
	C261.245483,509.985046 264.300018,510.696625 264.022125,506.319305 
	C263.778320,502.479370 261.380829,501.893799 258.212280,501.973267 
	C253.926102,502.080811 249.635208,502.000000 245.073914,502.000000 
	C245.073914,499.280304 245.073914,496.990631 245.770020,494.064148 
M386.783783,485.936462 
	C386.440491,483.448395 386.097198,480.960327 385.687988,477.994507 
	C390.986542,477.994507 395.617798,478.229218 400.209290,477.903351 
	C402.816864,477.718262 405.424683,476.762665 405.021729,473.072144 
	C404.680603,469.947205 402.880127,468.945343 399.982910,468.980164 
	C394.330322,469.048157 388.675323,469.064636 383.023285,468.976654 
	C379.457184,468.921204 377.953766,470.548279 377.975922,474.071777 
	C378.042877,484.713074 378.076660,495.355957 377.951935,505.996216 
	C377.916138,509.048889 379.032410,510.122925 382.043457,510.045410 
	C388.025452,509.891296 394.014252,509.992523 400.000214,510.003571 
	C402.509216,510.008179 405.187256,510.460785 405.033844,506.482391 
	C404.900177,503.015961 403.035156,501.931915 399.890320,501.981506 
	C395.302917,502.053894 390.713501,502.000092 386.325623,502.000092 
	C386.325623,498.958008 386.325623,496.553650 386.325623,493.984985 
	C390.294189,493.984985 393.948608,494.144440 397.581421,493.933014 
	C400.336792,493.772583 401.837463,491.899078 400.865662,489.300598 
	C400.355347,487.936096 398.586426,486.362366 397.191193,486.147522 
	C394.104828,485.672302 390.895355,485.996674 386.783783,485.936462 
M498.006470,479.641571 
	C498.798279,479.095032 499.570923,478.112183 500.385162,478.076355 
	C504.210205,477.907928 508.049347,478.087494 511.878265,477.971741 
	C515.131836,477.873413 517.098999,476.068054 516.934509,472.778503 
	C516.776978,469.627991 514.481689,468.927551 511.672638,468.973572 
	C506.175446,469.063660 500.674622,469.066803 495.177460,468.975830 
	C491.702881,468.918365 489.958435,470.316589 489.978760,473.935425 
	C490.038696,484.599152 490.071533,495.264252 489.954315,505.927002 
	C489.921478,508.915649 490.901276,510.132111 493.988983,510.047760 
	C499.983032,509.884003 505.984741,509.993927 511.983276,510.002899 
	C514.491089,510.006653 517.185791,510.477539 517.033813,506.483643 
	C516.901367,503.004242 515.021790,501.931641 511.874786,501.981445 
	C507.278961,502.054169 502.681122,502.000092 498.348083,502.000092 
	C498.348083,498.924500 498.348083,496.515961 498.348083,493.998566 
	C502.019409,493.998566 505.344788,494.044922 508.668182,493.984283 
	C511.446014,493.933594 513.197205,493.084259 513.095398,489.649689 
	C512.995300,486.271973 511.266144,485.887909 508.602112,485.973206 
	C505.156097,486.083527 501.703857,486.000092 498.000580,486.000092 
	C498.000580,483.856384 498.000580,482.219879 498.006470,479.641571 
M313.319153,507.837677 
	C315.233124,508.546936 318.692932,510.088287 318.826874,509.839417 
	C320.566498,506.607483 321.833954,503.121368 323.503723,498.999969 
	C324.205994,498.999969 326.007355,499.095764 327.795471,498.982483 
	C333.794861,498.602417 337.729279,495.048889 340.316559,490.055267 
	C342.483673,485.872620 340.729279,477.742401 337.955750,474.388641 
	C332.913452,468.291382 326.112762,469.010223 319.383972,468.967285 
	C314.860352,468.938446 312.917938,470.974304 312.966553,475.477783 
	C313.079834,485.974670 313.016754,496.473419 313.319153,507.837677 
M222.934250,496.475037 
	C222.618011,498.156860 222.879379,500.568695 221.866531,501.370056 
	C219.687958,503.093750 217.185867,502.933990 214.424545,501.257812 
	C212.895721,500.329773 209.620422,500.659607 208.186478,501.776184 
	C207.263931,502.494568 207.489349,506.255951 208.538467,507.636383 
	C211.406494,511.410065 219.252853,512.052368 224.904175,509.615967 
	C229.303818,507.719116 232.412735,502.309753 231.998917,497.271545 
	C231.489044,491.063934 227.246033,487.189636 220.392776,485.885040 
	C218.134613,485.455200 215.930756,483.917114 214.152206,482.368713 
	C213.707062,481.981171 214.756073,478.515594 215.550278,478.331940 
	C217.606995,477.856201 220.068741,477.964325 222.065674,478.682343 
	C224.783142,479.659454 227.485977,481.332367 229.359146,478.013031 
	C231.075699,474.971252 230.261032,472.009552 226.609375,471.028442 
	C222.911179,470.034882 219.009628,468.978424 215.263336,469.179962 
	C209.933929,469.466614 205.325821,475.399078 205.001663,481.079956 
	C204.714203,486.117432 208.329132,491.309814 213.330078,492.985046 
	C216.338058,493.992676 219.364075,494.946442 222.934250,496.475037 
M336.000000,543.501709 
	C336.000000,548.921631 336.000000,554.341492 336.000000,560.000000 
	C340.857452,560.000000 345.155396,559.920166 349.448944,560.023560 
	C353.357483,560.117615 357.246674,560.056885 359.011932,555.777283 
	C360.827026,551.376953 361.115936,546.978760 357.190186,543.428589 
	C361.382050,537.231201 358.771271,528.669434 352.432465,528.106567 
	C347.061249,527.629517 341.614044,528.008118 336.000000,528.008118 
	C336.000000,533.235535 336.000000,537.869507 336.000000,543.501709 
M563.000000,485.565247 
	C563.000000,492.045227 563.069336,498.526245 562.968689,505.004669 
	C562.923096,507.942505 563.002441,510.111542 567.031250,510.108368 
	C571.125183,510.105133 571.048096,507.813568 571.025574,504.942596 
	C570.955688,496.024445 571.000000,487.105377 571.000000,477.972809 
	C573.686829,477.972809 575.911926,478.340942 577.949768,477.880341 
	C580.543335,477.294128 583.821228,476.163757 582.767273,472.763855 
	C582.258179,471.121887 579.381348,469.282623 577.479492,469.169769 
	C570.359924,468.747406 563.182861,468.732727 556.068604,469.197357 
	C554.373962,469.308075 552.839355,471.868011 551.231201,473.301422 
	C552.856628,474.867310 554.235779,477.039948 556.177002,477.827911 
	C558.104309,478.610199 560.597229,477.999115 563.000000,477.999115 
	C563.000000,480.627533 563.000000,482.606079 563.000000,485.565247 
M383.381287,529.920837 
	C377.052094,529.010437 370.722931,528.100037 364.000763,527.133057 
	C364.000763,537.872498 363.892792,547.177002 364.133759,556.472534 
	C364.164825,557.670654 366.004364,558.821899 367.006134,559.994934 
	C368.003845,558.816895 369.599548,557.759705 369.867401,556.434082 
	C370.338959,554.100586 369.999268,551.603027 369.999268,548.066589 
	C372.010437,549.352173 373.403198,549.864380 374.235413,550.849976 
	C376.212738,553.191589 377.629089,556.082031 379.856018,558.109314 
	C381.165039,559.300903 383.591888,559.264526 385.515930,559.780518 
	C385.567047,557.923096 386.195953,555.817383 385.530243,554.267944 
	C384.595215,552.091614 382.698425,550.328552 381.213867,548.389832 
	C387.940369,544.250244 388.799316,538.706909 383.381287,529.920837 
M415.041534,560.546997 
	C419.326599,560.568054 421.106232,558.581665 419.551422,555.093750 
	C415.887817,546.875183 412.109070,538.703125 408.117767,530.640503 
	C407.508698,529.410217 405.543274,528.260864 404.157715,528.202576 
	C403.147369,528.160034 401.704559,529.788086 401.075134,530.995056 
	C399.518219,533.980713 398.317810,537.152344 396.973877,540.249146 
	C394.866669,545.104614 392.550171,549.885620 390.779205,554.860779 
	C390.246002,556.358765 391.229370,558.396545 391.518005,560.187073 
	C393.224915,559.399719 395.031097,558.767517 396.599518,557.763794 
	C397.464203,557.210449 397.881958,555.303284 398.583069,555.257385 
	C402.723145,554.986572 406.947906,554.676819 411.009216,555.283569 
	C412.370514,555.486938 413.335632,558.342102 415.041534,560.546997 
M470.654663,501.999481 
	C467.755280,502.468964 467.977997,500.545837 467.984802,498.636871 
	C468.018494,489.176453 468.000153,479.715820 468.000153,470.332764 
	C464.476349,469.464203 460.334778,467.824310 460.128815,473.143921 
	C459.704620,484.098755 459.950378,495.082001 460.041595,506.052521 
	C460.062500,508.571075 461.076141,510.226013 464.228607,510.068970 
	C469.369049,509.812866 474.532379,510.054657 479.684326,509.975037 
	C481.989868,509.939423 484.935608,510.918640 485.036011,506.801300 
	C485.132080,502.862915 482.443604,502.277863 479.589142,502.046509 
	C476.946777,501.832367 474.273407,502.000336 470.654663,501.999481 
M423.825256,552.036438 
	C420.270050,554.562866 421.659424,557.186462 424.428192,558.585022 
	C426.754303,559.759949 429.761597,559.909058 432.472931,559.935303 
	C439.283234,560.001465 443.128387,554.224548 441.330933,547.693176 
	C439.926758,542.590820 436.081696,541.807739 431.857025,540.904602 
	C430.363068,540.585266 428.870087,539.389832 427.843719,538.193542 
	C427.446075,537.730103 428.095123,535.437744 428.695953,535.232300 
	C430.182495,534.724060 431.932312,534.768066 433.546387,534.916382 
	C434.954041,535.045837 436.717529,536.329163 437.610291,535.828979 
	C438.872101,535.122070 440.560181,532.583740 440.187592,531.971558 
	C437.734467,527.941040 433.359406,526.960083 429.392365,528.222534 
	C426.344269,529.192505 422.974609,531.649292 421.495514,534.388489 
	C419.835297,537.463135 420.384949,541.763367 423.799072,544.141602 
	C425.926544,545.623535 428.801117,545.987488 431.210419,547.127747 
	C432.596527,547.783875 434.063446,548.784424 434.812103,550.037354 
	C435.146332,550.596619 434.052032,552.745483 433.160065,553.125122 
	C431.893188,553.664307 430.192841,553.389709 428.718719,553.177673 
	C427.336700,552.978943 426.007996,552.409363 423.825256,552.036438 
M456.000000,534.603882 
	C456.000000,543.017822 456.000000,551.431763 456.000000,559.999817 
	C461.456451,559.999817 466.286743,560.226318 471.071106,559.857239 
	C472.447113,559.751099 473.690643,557.927246 474.994904,556.890930 
	C473.617615,555.927307 472.334259,554.361816 470.842865,554.129028 
	C467.996582,553.684753 465.031708,554.000122 462.000000,554.000122 
	C462.000000,546.501465 462.024719,539.687256 461.991913,532.873413 
	C461.967041,527.708557 461.616364,527.479980 456.000000,528.717468 
	C456.000000,530.329712 456.000000,531.983521 456.000000,534.603882 
M446.000000,555.327698 
	C446.000000,556.794189 446.000000,558.260620 446.000000,559.617188 
	C450.913208,560.936646 452.259857,559.070129 452.078705,554.642944 
	C451.786041,547.491211 451.778992,540.309448 452.079163,533.158325 
	C452.273224,528.534424 450.574585,527.152710 446.000000,528.387512 
	C446.000000,537.083313 446.000000,545.723022 446.000000,555.327698 
z"/>
<path fill="#0C0246" opacity="1.000000" stroke="none" 
	d="
M487.813904,32.019615 
	C506.500031,38.299725 524.736328,44.616379 541.763306,53.946926 
	C556.047913,61.774677 570.115417,70.008621 581.338684,81.974487 
	C596.747375,98.402641 606.718933,117.779419 609.935364,140.240005 
	C611.347351,150.100281 612.975769,160.088364 612.778564,169.983963 
	C612.463989,185.763397 610.343384,201.434540 606.642273,216.883926 
	C599.925476,244.921478 589.420166,271.486481 575.953003,296.876404 
	C563.818970,319.752960 550.388550,341.866028 533.671204,361.758789 
	C522.803833,374.690277 512.254150,388.008759 500.288635,399.869080 
	C482.468842,417.532227 463.192535,433.730713 440.076263,444.238129 
	C430.929596,448.395721 421.187561,452.110046 411.345673,453.640137 
	C400.395660,455.342529 390.108124,450.520325 380.573456,445.047760 
	C366.659576,437.061768 353.879852,427.502716 342.649689,416.062500 
	C329.980835,403.156830 317.471558,390.078522 305.298248,376.706268 
	C287.541321,357.200500 272.255096,335.752930 258.193909,313.505188 
	C248.385086,297.985535 239.349319,281.953247 230.496780,265.859192 
	C218.612457,244.253342 209.168808,221.579773 201.909454,197.970825 
	C195.639725,177.580307 192.344315,156.769989 194.196548,135.565857 
	C195.612122,119.360596 202.591629,104.955498 212.479797,91.967110 
	C229.613159,69.461937 252.507767,54.937897 277.883331,43.489052 
	C298.905670,34.004276 321.008911,28.385378 343.487427,24.163271 
	C353.574768,22.268587 363.948608,21.633615 374.227478,21.090168 
	C387.627899,20.381689 401.101379,19.556471 414.472687,20.215918 
	C427.945984,20.880390 441.393921,22.920681 454.738129,25.071070 
	C465.711914,26.839476 476.517517,29.651926 487.813904,32.019615 
M314.073120,129.394867 
	C314.267090,129.369400 314.461060,129.343933 314.655029,129.318466 
	C314.417603,129.231232 314.180176,129.143982 314.199402,128.301880 
	C314.769562,126.277390 315.339691,124.252899 315.683594,123.031784 
	C313.905609,121.685173 311.985718,120.231094 310.805115,119.336960 
	C308.871185,120.601982 306.984192,121.836281 306.055786,122.443558 
	C306.306915,124.764732 306.531006,126.836121 306.925873,128.927536 
	C306.925873,128.927536 306.774963,129.041504 306.774963,129.041504 
	C306.774963,129.041504 306.845734,128.813446 307.508881,129.304688 
	C309.682556,129.189667 311.856201,129.074646 314.073120,129.394867 
M268.286957,114.835960 
	C268.286957,114.835960 268.259979,115.000114 268.259979,115.000114 
	C268.259979,115.000114 268.391388,114.633224 268.067841,113.928322 
	C264.296265,108.833313 268.878693,106.379829 272.015503,103.170364 
	C265.101135,105.248421 263.169189,100.866203 261.360016,95.661255 
	C261.116577,102.547226 257.188202,104.092209 251.066177,103.677811 
	C257.352112,106.369743 257.825012,110.492905 254.942093,115.944824 
	C259.167572,111.843063 263.057068,110.989708 267.172852,115.054756 
	C267.291748,115.172203 267.957458,114.736069 268.286957,114.835960 
M323.476929,109.480568 
	C327.515564,105.461655 331.466187,105.899597 335.709229,110.178711 
	C332.927856,104.840027 333.542664,100.800003 339.395447,97.808403 
	C332.843262,99.272820 330.464874,95.826218 329.374512,90.300781 
	C325.938080,97.238754 325.938080,97.238754 317.509460,98.306847 
	C324.444153,100.312561 324.584656,104.355865 322.623901,109.183380 
	C322.737244,109.325310 322.850586,109.467239 322.963928,109.609184 
	C322.939056,109.384491 322.914185,109.159805 323.476929,109.480568 
M442.339478,208.861099 
	C444.807098,201.997833 447.430542,195.185745 449.705627,188.259262 
	C453.071533,178.011917 455.036743,167.330307 452.559723,156.792694 
	C446.148254,129.517639 429.638214,107.909126 412.053436,86.504822 
	C396.296387,105.203369 382.471222,124.433784 374.119507,147.035583 
	C369.537476,159.435715 369.389465,172.004318 373.902954,184.607010 
	C379.215057,199.439590 384.204620,214.387360 389.447845,229.245010 
	C393.858673,241.743912 398.841034,254.057816 402.785339,266.698547 
	C405.262177,274.636383 401.994049,278.176697 393.437683,278.770691 
	C389.715515,269.743134 386.394073,260.523865 382.186920,251.728271 
	C373.664307,233.910721 362.484375,218.194168 342.693634,211.696869 
	C324.903900,205.856476 306.676697,205.874847 288.638977,211.000336 
	C280.197113,213.399124 272.799042,218.122330 269.292603,226.351273 
	C261.394684,244.886276 262.237488,263.085907 274.471313,279.679108 
	C281.881592,289.729919 290.462585,288.595764 295.975647,277.472595 
	C304.643372,259.984528 321.505951,249.863831 339.849213,251.140228 
	C358.651184,252.448532 375.676147,266.063721 381.737396,284.829315 
	C377.840912,287.211914 373.785767,289.480103 369.962128,292.087769 
	C365.962982,294.815155 365.709503,297.768890 369.154999,301.121063 
	C372.373352,304.252228 375.839966,307.130737 379.233734,310.078461 
	C385.343567,315.385254 385.520691,317.465363 379.983246,323.684570 
	C378.562927,325.279785 376.929779,326.874268 375.070953,327.858093 
	C366.168152,332.570282 354.715546,334.730194 350.646393,320.060760 
	C349.641205,316.436890 347.736267,312.983643 345.788605,309.724701 
	C344.191040,307.051575 342.265961,304.349976 339.874359,302.418365 
	C333.152344,296.989105 322.062897,300.242401 321.030334,307.951416 
	C319.622284,318.463806 321.738098,328.175262 329.378784,336.098785 
	C346.430389,353.781525 376.569672,350.519501 389.697815,329.504822 
	C391.950928,325.898071 393.696686,321.974365 395.700348,318.152222 
	C400.282379,319.528320 404.673370,320.847046 409.871704,322.408234 
	C405.615356,329.835052 401.914764,336.877258 397.666016,343.571564 
	C390.916870,354.205383 392.115570,360.035522 402.940369,366.462067 
	C410.972046,371.230377 419.997528,369.786682 426.889343,362.631378 
	C431.843201,357.488068 431.458221,351.014313 426.160217,342.595886 
	C422.043884,336.055176 418.310150,329.273651 414.146759,322.155304 
	C419.429749,320.737244 424.000824,319.510284 428.622406,318.269745 
	C429.552124,320.294189 430.310974,321.943604 431.067352,323.594116 
	C439.392242,341.760773 450.140045,348.198883 470.149719,347.004700 
	C488.815125,345.890686 502.141724,333.311310 503.529572,315.006012 
	C503.929962,309.724701 503.646240,303.994415 498.034729,301.027039 
	C492.493958,298.097137 487.413208,300.511383 483.457642,304.231018 
	C480.296509,307.203613 477.974701,311.172882 475.696869,314.950928 
	C473.485229,318.619232 472.069702,322.771881 469.816620,326.409607 
	C467.470367,330.197723 463.654663,332.161346 459.179810,331.580414 
	C450.872711,330.502014 444.766602,326.140350 440.929321,318.558105 
	C439.537720,315.808289 440.041229,314.032959 442.392059,312.181335 
	C445.918823,309.403503 449.225616,306.346954 452.635010,303.419434 
	C459.071228,297.893066 458.781708,294.607880 451.408417,290.190308 
	C447.766998,288.008636 444.081879,285.899841 440.108307,283.577942 
	C446.288269,276.576385 451.979706,269.839874 457.988434,263.399353 
	C464.397461,256.529755 472.076599,251.803955 481.718811,250.956238 
	C501.809692,249.189911 520.380432,260.061096 528.813904,278.533752 
	C533.320557,288.404938 542.531494,289.752472 548.303772,280.581482 
	C552.732361,273.545349 556.478149,265.631195 558.475891,257.597351 
	C564.488281,233.418945 553.378052,215.224884 529.299194,209.349777 
	C515.593567,206.005707 501.589844,205.947601 487.803772,209.562271 
	C465.591064,215.386383 451.778778,230.591248 442.718597,250.771088 
	C438.446838,260.285583 434.724915,270.046906 430.757935,279.686371 
	C420.196930,276.067810 419.176178,274.267700 421.879059,263.602417 
	C422.691711,260.395813 423.662994,257.207855 424.846069,254.120361 
	C430.540283,239.260223 436.331818,224.437363 442.339478,208.861099 
M281.647583,147.989197 
	C281.465210,148.563339 281.086304,149.625656 281.128235,149.642532 
	C288.310150,152.533768 288.365692,157.498337 285.258820,163.451706 
	C285.114349,163.728561 285.340240,164.198715 285.502533,165.353989 
	C290.751617,159.305984 296.145020,157.804535 302.580261,164.344406 
	C297.812012,156.106735 301.700317,151.750931 308.498383,147.993088 
	C299.646484,150.366531 295.497314,146.503571 293.895203,138.187790 
	C292.340088,144.931274 290.077118,149.872925 281.647583,147.989197 
M284.839386,78.157402 
	C289.979126,79.995056 289.076202,84.077354 288.018311,88.573563 
	C292.378052,84.039467 296.206238,84.905792 300.452545,88.776787 
	C297.513367,83.179169 299.038239,79.516434 304.448822,76.780296 
	C297.713257,78.348587 295.430389,74.693115 293.895874,69.419563 
	C292.837341,75.017326 290.161743,77.827538 284.617279,76.751137 
	C284.580841,76.744072 284.404266,77.458870 284.839386,78.157402 
z"/>
<path fill="#0B0146" opacity="1.000000" stroke="none" 
	d="
M307.991608,471.354675 
	C308.339874,473.343048 308.940399,474.905609 308.955536,476.473846 
	C309.045502,485.792633 308.952332,495.113098 309.025909,504.432159 
	C309.051483,507.670532 308.319458,510.020142 304.471191,510.006714 
	C300.597626,509.993195 299.894440,507.585083 299.978394,504.374115 
	C300.072540,500.772369 300.000031,497.166260 300.000031,492.265045 
	C297.307922,497.443665 295.401703,501.626923 292.989502,505.494598 
	C292.035400,507.024323 290.020447,508.613892 288.367676,508.754364 
	C287.084442,508.863434 285.133820,507.037292 284.316284,505.596710 
	C281.893982,501.328430 279.885712,496.825165 276.999756,492.546143 
	C276.999756,497.096985 276.869720,501.652771 277.043671,506.196930 
	C277.167786,509.438873 275.576599,510.067780 272.760925,510.063873 
	C269.950562,510.059967 268.940643,508.991974 268.963959,506.219604 
	C269.053558,495.569336 268.846405,484.913422 269.153717,474.271240 
	C269.204041,472.528992 271.286041,470.845428 272.429016,469.134735 
	C274.003937,470.273621 276.200073,471.070343 277.047943,472.609680 
	C281.059509,479.892883 284.702606,487.378998 288.722565,495.275116 
	C292.586884,487.761139 296.209076,480.583038 299.964233,473.475189 
	C301.735229,470.123016 303.868317,467.244995 307.991608,471.354675 
z"/>
<path fill="#0B0146" opacity="1.000000" stroke="none" 
	d="
M551.000000,484.765045 
	C549.075684,488.871704 547.151428,492.548187 545.227112,496.224701 
	C544.752625,496.090332 544.278137,495.955963 543.803650,495.821594 
	C545.474731,497.980133 547.679688,499.925140 548.654358,502.362183 
	C549.490967,504.454010 548.920959,507.108337 548.973022,509.513916 
	C546.653137,509.004425 543.744995,509.186005 542.148438,507.826813 
	C539.625366,505.678925 538.159668,502.338287 535.897827,499.815063 
	C534.589783,498.355957 532.598267,497.509521 529.999878,495.777893 
	C529.999878,500.125671 529.892212,502.945801 530.030212,505.753876 
	C530.168030,508.556976 529.453125,510.050354 526.200195,510.087341 
	C522.848633,510.125427 521.905029,508.829620 521.947388,505.653778 
	C522.087341,495.163879 522.059937,484.670410 521.968689,474.179443 
	C521.935120,470.316315 523.716797,468.812195 527.429321,468.975403 
	C530.254944,469.099609 533.090515,468.983185 535.921509,469.003113 
	C545.208557,469.068451 550.975952,474.939148 551.000000,484.765045 
M540.945618,486.578094 
	C541.304382,484.792786 542.446045,482.699036 541.885376,481.275970 
	C539.546265,475.338898 534.370605,479.012268 530.306458,477.939911 
	C530.306458,481.876038 530.306458,485.386414 530.306458,489.908875 
	C534.015686,488.872742 537.182861,487.988007 540.945618,486.578094 
z"/>
<path fill="#0B0146" opacity="1.000000" stroke="none" 
	d="
M351.207123,469.000000 
	C355.249451,469.288452 358.821533,469.596313 362.396820,469.860992 
	C368.518524,470.314240 371.829803,474.389191 372.822937,479.652527 
	C374.030975,486.054688 372.612305,492.100189 365.749695,495.740692 
	C367.555542,498.071228 369.833191,500.140961 370.931061,502.714081 
	C371.748535,504.629974 371.038727,507.197510 371.009094,509.474823 
	C368.943329,509.084045 366.317993,509.344940 364.935730,508.158081 
	C362.534363,506.096130 361.080505,502.972809 358.886353,500.613464 
	C357.273254,498.878937 355.112762,497.653442 353.196198,496.201111 
	C352.797394,496.526154 352.398590,496.851166 351.999786,497.176208 
	C351.999786,500.133850 351.858917,503.100098 352.038269,506.046814 
	C352.228088,509.164917 350.850433,510.048950 347.903900,510.074677 
	C344.750519,510.102142 343.924622,508.765503 343.956299,505.855469 
	C344.068604,495.528290 344.176849,485.194824 343.925568,474.872528 
	C343.799469,469.692566 346.412109,468.569366 351.207123,469.000000 
M355.477966,478.000031 
	C347.950500,479.831726 354.114563,485.366669 351.402588,488.988953 
	C354.527863,488.988953 356.780151,489.593903 358.413452,488.846375 
	C360.830170,487.740356 363.239410,485.978271 364.737152,483.851440 
	C365.260223,483.108643 363.476776,479.903503 362.009369,478.841675 
	C360.646423,477.855408 358.301208,478.226501 355.477966,478.000031 
z"/>
<path fill="#0B0146" opacity="1.000000" stroke="none" 
	d="
M607.281372,487.702759 
	C609.719543,493.172668 611.679565,498.452209 614.210205,503.442383 
	C615.696472,506.373077 615.035706,508.469452 612.578430,509.642120 
	C609.923401,510.909210 607.456970,510.144470 606.379761,506.885345 
	C605.975647,505.662323 605.276001,504.536957 604.618408,503.175354 
	C598.971802,503.175354 593.195801,503.175354 587.434509,503.175354 
	C586.616577,504.783081 586.168518,506.794098 584.914734,507.825836 
	C583.526733,508.967896 581.170166,510.011200 579.676880,509.577545 
	C578.637268,509.275604 577.355652,506.007477 577.868469,504.754547 
	C582.360596,493.777710 587.080017,482.885742 592.062927,472.121735 
	C594.209167,467.485504 597.617249,467.546143 599.955811,472.095642 
	C602.522522,477.088989 604.697449,482.283783 607.281372,487.702759 
M591.472839,494.072418 
	C594.483704,494.511993 597.494507,494.951569 601.458130,495.530273 
	C599.444946,491.321014 597.863464,488.014526 596.029358,484.179779 
	C594.393005,487.894958 593.172363,490.666260 591.472839,494.072418 
z"/>
<path fill="#0B0146" opacity="1.000000" stroke="none" 
	d="
M429.019348,483.113617 
	C430.696686,479.240448 432.188385,475.663879 434.093018,472.322662 
	C434.873108,470.954224 436.655243,469.107483 437.785950,469.233459 
	C439.498657,469.424316 441.812561,470.779663 442.529816,472.281006 
	C447.229706,482.118652 451.588409,492.119965 456.012970,502.088043 
	C457.225861,504.820648 458.628876,508.324493 455.120972,509.747192 
	C451.954254,511.031525 448.899994,509.538208 447.857361,505.420197 
	C447.596039,504.388153 445.633240,503.175201 444.395874,503.109467 
	C439.435150,502.845856 434.452240,503.000549 429.663544,503.000549 
	C428.856018,504.848022 428.576324,507.043640 427.358002,507.893219 
	C425.721008,509.034790 423.359192,509.137054 421.308502,509.685425 
	C421.071350,507.087524 419.950409,504.164001 420.764893,501.953613 
	C423.088196,495.648651 426.198975,489.633881 429.019348,483.113617 
M434.035339,492.667633 
	C433.844238,493.405670 433.653137,494.143677 433.486237,494.788269 
	C436.633545,494.788269 439.705444,494.788269 443.219360,494.788269 
	C441.520050,491.110474 439.977844,487.772705 438.390747,484.337738 
	C437.066284,486.936584 435.770081,489.479919 434.035339,492.667633 
z"/>
<path fill="#0B0146" opacity="1.000000" stroke="none" 
	d="
M245.421967,494.382538 
	C245.073914,496.990631 245.073914,499.280304 245.073914,502.000000 
	C249.635208,502.000000 253.926102,502.080811 258.212280,501.973267 
	C261.380829,501.893799 263.778320,502.479370 264.022125,506.319305 
	C264.300018,510.696625 261.245483,509.985046 258.649292,509.993988 
	C252.985352,510.013489 247.316177,509.855164 241.659210,510.054840 
	C238.315155,510.172882 236.859467,509.258820 236.929459,505.597839 
	C237.129990,495.106567 237.042633,484.608704 236.976196,474.114044 
	C236.954041,470.611694 238.399979,468.921021 241.996918,468.976807 
	C247.659561,469.064636 253.325195,469.048706 258.988373,468.979919 
	C261.897644,468.944611 263.693634,469.963715 264.020111,473.091919 
	C264.405518,476.784576 261.787933,477.717010 259.174896,477.906097 
	C254.707977,478.229279 250.200760,477.995209 245.355530,477.995209 
	C245.355530,480.507355 245.355530,482.913605 245.355530,486.000092 
	C248.671021,486.000092 252.285721,486.249542 255.848724,485.927277 
	C259.157501,485.628021 260.765869,487.681274 260.751129,490.044708 
	C260.736145,492.447510 259.038452,494.401825 255.755920,494.076477 
	C252.459259,493.749695 249.101181,494.042725 245.421967,494.382538 
z"/>
<path fill="#0B0146" opacity="1.000000" stroke="none" 
	d="
M387.259949,485.965698 
	C390.895355,485.996674 394.104828,485.672302 397.191193,486.147522 
	C398.586426,486.362366 400.355347,487.936096 400.865662,489.300598 
	C401.837463,491.899078 400.336792,493.772583 397.581421,493.933014 
	C393.948608,494.144440 390.294189,493.984985 386.325623,493.984985 
	C386.325623,496.553650 386.325623,498.958008 386.325623,502.000092 
	C390.713501,502.000092 395.302917,502.053894 399.890320,501.981506 
	C403.035156,501.931915 404.900177,503.015961 405.033844,506.482391 
	C405.187256,510.460785 402.509216,510.008179 400.000214,510.003571 
	C394.014252,509.992523 388.025452,509.891296 382.043457,510.045410 
	C379.032410,510.122925 377.916138,509.048889 377.951935,505.996216 
	C378.076660,495.355957 378.042877,484.713074 377.975922,474.071777 
	C377.953766,470.548279 379.457184,468.921204 383.023285,468.976654 
	C388.675323,469.064636 394.330322,469.048157 399.982910,468.980164 
	C402.880127,468.945343 404.680603,469.947205 405.021729,473.072144 
	C405.424683,476.762665 402.816864,477.718262 400.209290,477.903351 
	C395.617798,478.229218 390.986542,477.994507 385.687988,477.994507 
	C386.097198,480.960327 386.440491,483.448395 387.259949,485.965698 
z"/>
<path fill="#0B0146" opacity="1.000000" stroke="none" 
	d="
M498.003540,480.112488 
	C498.000580,482.219879 498.000580,483.856384 498.000580,486.000092 
	C501.703857,486.000092 505.156097,486.083527 508.602112,485.973206 
	C511.266144,485.887909 512.995300,486.271973 513.095398,489.649689 
	C513.197205,493.084259 511.446014,493.933594 508.668182,493.984283 
	C505.344788,494.044922 502.019409,493.998566 498.348083,493.998566 
	C498.348083,496.515961 498.348083,498.924500 498.348083,502.000092 
	C502.681122,502.000092 507.278961,502.054169 511.874786,501.981445 
	C515.021790,501.931641 516.901367,503.004242 517.033813,506.483643 
	C517.185791,510.477539 514.491089,510.006653 511.983276,510.002899 
	C505.984741,509.993927 499.983032,509.884003 493.988983,510.047760 
	C490.901276,510.132111 489.921478,508.915649 489.954315,505.927002 
	C490.071533,495.264252 490.038696,484.599152 489.978760,473.935425 
	C489.958435,470.316589 491.702881,468.918365 495.177460,468.975830 
	C500.674622,469.066803 506.175446,469.063660 511.672638,468.973572 
	C514.481689,468.927551 516.776978,469.627991 516.934509,472.778503 
	C517.098999,476.068054 515.131836,477.873413 511.878265,477.971741 
	C508.049347,478.087494 504.210205,477.907928 500.385162,478.076355 
	C499.570923,478.112183 498.798279,479.095032 498.003540,480.112488 
z"/>
<path fill="#0B0146" opacity="1.000000" stroke="none" 
	d="
M313.172119,507.404541 
	C313.016754,496.473419 313.079834,485.974670 312.966553,475.477783 
	C312.917938,470.974304 314.860352,468.938446 319.383972,468.967285 
	C326.112762,469.010223 332.913452,468.291382 337.955750,474.388641 
	C340.729279,477.742401 342.483673,485.872620 340.316559,490.055267 
	C337.729279,495.048889 333.794861,498.602417 327.795471,498.982483 
	C326.007355,499.095764 324.205994,498.999969 323.503723,498.999969 
	C321.833954,503.121368 320.566498,506.607483 318.826874,509.839417 
	C318.692932,510.088287 315.233124,508.546936 313.172119,507.404541 
M332.108612,487.339600 
	C334.472565,480.091980 331.177856,477.132599 322.197754,478.529999 
	C322.197754,482.581146 322.197754,486.643555 322.197754,492.228638 
	C325.809052,490.580658 328.697235,489.262695 332.108612,487.339600 
z"/>
<path fill="#0B0146" opacity="1.000000" stroke="none" 
	d="
M222.658112,496.199707 
	C219.364075,494.946442 216.338058,493.992676 213.330078,492.985046 
	C208.329132,491.309814 204.714203,486.117432 205.001663,481.079956 
	C205.325821,475.399078 209.933929,469.466614 215.263336,469.179962 
	C219.009628,468.978424 222.911179,470.034882 226.609375,471.028442 
	C230.261032,472.009552 231.075699,474.971252 229.359146,478.013031 
	C227.485977,481.332367 224.783142,479.659454 222.065674,478.682343 
	C220.068741,477.964325 217.606995,477.856201 215.550278,478.331940 
	C214.756073,478.515594 213.707062,481.981171 214.152206,482.368713 
	C215.930756,483.917114 218.134613,485.455200 220.392776,485.885040 
	C227.246033,487.189636 231.489044,491.063934 231.998917,497.271545 
	C232.412735,502.309753 229.303818,507.719116 224.904175,509.615967 
	C219.252853,512.052368 211.406494,511.410065 208.538467,507.636383 
	C207.489349,506.255951 207.263931,502.494568 208.186478,501.776184 
	C209.620422,500.659607 212.895721,500.329773 214.424545,501.257812 
	C217.185867,502.933990 219.687958,503.093750 221.866531,501.370056 
	C222.879379,500.568695 222.618011,498.156860 222.658112,496.199707 
z"/>
<path fill="#0B0146" opacity="1.000000" stroke="none" 
	d="
M336.000000,543.002625 
	C336.000000,537.869507 336.000000,533.235535 336.000000,528.008118 
	C341.614044,528.008118 347.061249,527.629517 352.432465,528.106567 
	C358.771271,528.669434 361.382050,537.231201 357.190186,543.428589 
	C361.115936,546.978760 360.827026,551.376953 359.011932,555.777283 
	C357.246674,560.056885 353.357483,560.117615 349.448944,560.023560 
	C345.155396,559.920166 340.857452,560.000000 336.000000,560.000000 
	C336.000000,554.341492 336.000000,548.921631 336.000000,543.002625 
M342.005615,548.648865 
	C342.005615,550.387573 342.005615,552.126343 342.005615,553.999329 
	C344.956573,553.999329 347.353912,554.388977 349.535767,553.870972 
	C351.159393,553.485535 352.503998,551.924805 353.972900,550.887512 
	C352.718628,549.623596 351.604614,547.516296 350.179596,547.279297 
	C347.571594,546.845642 344.779846,547.517090 342.005615,548.648865 
M347.171661,540.999939 
	C349.106415,539.722839 352.879578,537.800964 352.692596,537.267944 
	C350.744415,531.712891 346.033875,534.740540 342.217072,534.021240 
	C342.217072,536.528625 342.217072,538.595337 342.217072,541.000000 
	C343.715485,541.000000 345.000977,541.000000 347.171661,540.999939 
z"/>
<path fill="#0B0146" opacity="1.000000" stroke="none" 
	d="
M563.000000,485.074951 
	C563.000000,482.606079 563.000000,480.627533 563.000000,477.999115 
	C560.597229,477.999115 558.104309,478.610199 556.177002,477.827911 
	C554.235779,477.039948 552.856628,474.867310 551.231201,473.301392 
	C552.839355,471.868011 554.373962,469.308075 556.068604,469.197357 
	C563.182861,468.732727 570.359924,468.747406 577.479492,469.169769 
	C579.381348,469.282623 582.258179,471.121887 582.767273,472.763855 
	C583.821228,476.163757 580.543335,477.294128 577.949768,477.880341 
	C575.911926,478.340942 573.686829,477.972809 571.000000,477.972809 
	C571.000000,487.105377 570.955688,496.024445 571.025574,504.942596 
	C571.048096,507.813568 571.125183,510.105133 567.031250,510.108368 
	C563.002441,510.111542 562.923096,507.942505 562.968689,505.004669 
	C563.069336,498.526245 563.000000,492.045227 563.000000,485.074951 
z"/>
<path fill="#0B0146" opacity="1.000000" stroke="none" 
	d="
M383.679077,530.194641 
	C388.799316,538.706909 387.940369,544.250244 381.213867,548.389832 
	C382.698425,550.328552 384.595215,552.091614 385.530243,554.267944 
	C386.195953,555.817383 385.567047,557.923096 385.515930,559.780518 
	C383.591888,559.264526 381.165039,559.300903 379.856018,558.109314 
	C377.629089,556.082031 376.212738,553.191589 374.235413,550.849976 
	C373.403198,549.864380 372.010437,549.352173 369.999268,548.066589 
	C369.999268,551.603027 370.338959,554.100586 369.867401,556.434082 
	C369.599548,557.759705 368.003845,558.816895 367.006134,559.994934 
	C366.004364,558.821899 364.164825,557.670654 364.133759,556.472534 
	C363.892792,547.177002 364.000763,537.872498 364.000763,527.133057 
	C370.722931,528.100037 377.052094,529.010437 383.679077,530.194641 
M373.346558,534.000000 
	C366.437927,535.055786 371.827698,539.990845 369.614990,542.800659 
	C374.570801,543.087708 379.524109,544.230835 380.400085,538.740906 
	C380.878754,535.741150 378.034363,533.354187 373.346558,534.000000 
z"/>
<path fill="#0B0146" opacity="1.000000" stroke="none" 
	d="
M414.761719,560.266113 
	C413.335632,558.342102 412.370514,555.486938 411.009216,555.283569 
	C406.947906,554.676819 402.723145,554.986572 398.583069,555.257385 
	C397.881958,555.303284 397.464203,557.210449 396.599518,557.763794 
	C395.031097,558.767517 393.224915,559.399719 391.518005,560.187073 
	C391.229370,558.396545 390.246002,556.358765 390.779205,554.860779 
	C392.550171,549.885620 394.866669,545.104614 396.973877,540.249146 
	C398.317810,537.152344 399.518219,533.980713 401.075134,530.995056 
	C401.704559,529.788086 403.147369,528.160034 404.157715,528.202576 
	C405.543274,528.260864 407.508698,529.410217 408.117767,530.640503 
	C412.109070,538.703125 415.887817,546.875183 419.551422,555.093750 
	C421.106232,558.581665 419.326599,560.568054 414.761719,560.266113 
M406.983276,548.998840 
	C407.474823,548.665649 408.436859,548.151184 408.388611,548.025818 
	C407.345856,545.318787 406.190338,542.655212 404.863251,539.527649 
	C403.317657,543.134705 402.147278,545.866089 400.804413,549.000000 
	C402.893219,549.000000 404.526947,549.000000 406.983276,548.998840 
z"/>
<path fill="#0B0146" opacity="1.000000" stroke="none" 
	d="
M471.134186,501.999756 
	C474.273407,502.000336 476.946777,501.832367 479.589142,502.046509 
	C482.443604,502.277863 485.132080,502.862915 485.036011,506.801300 
	C484.935608,510.918640 481.989868,509.939423 479.684326,509.975037 
	C474.532379,510.054657 469.369049,509.812866 464.228607,510.068970 
	C461.076141,510.226013 460.062500,508.571075 460.041595,506.052521 
	C459.950378,495.082001 459.704620,484.098755 460.128815,473.143921 
	C460.334778,467.824310 464.476349,469.464203 468.000153,470.332764 
	C468.000153,479.715820 468.018494,489.176453 467.984802,498.636871 
	C467.977997,500.545837 467.755280,502.468964 471.134186,501.999756 
z"/>
<path fill="#0B0146" opacity="1.000000" stroke="none" 
	d="
M424.240540,552.019714 
	C426.007996,552.409363 427.336700,552.978943 428.718719,553.177673 
	C430.192841,553.389709 431.893188,553.664307 433.160065,553.125122 
	C434.052032,552.745483 435.146332,550.596619 434.812103,550.037354 
	C434.063446,548.784424 432.596527,547.783875 431.210419,547.127747 
	C428.801117,545.987488 425.926544,545.623535 423.799072,544.141602 
	C420.384949,541.763367 419.835297,537.463135 421.495514,534.388489 
	C422.974609,531.649292 426.344269,529.192505 429.392365,528.222534 
	C433.359406,526.960083 437.734467,527.941040 440.187592,531.971558 
	C440.560181,532.583740 438.872101,535.122070 437.610291,535.828979 
	C436.717529,536.329163 434.954041,535.045837 433.546387,534.916382 
	C431.932312,534.768066 430.182495,534.724060 428.695953,535.232300 
	C428.095123,535.437744 427.446075,537.730103 427.843719,538.193542 
	C428.870087,539.389832 430.363068,540.585266 431.857025,540.904602 
	C436.081696,541.807739 439.926758,542.590820 441.330933,547.693176 
	C443.128387,554.224548 439.283234,560.001465 432.472931,559.935303 
	C429.761597,559.909058 426.754303,559.759949 424.428192,558.585022 
	C421.659424,557.186462 420.270050,554.562866 424.240540,552.019714 
z"/>
<path fill="#0B0146" opacity="1.000000" stroke="none" 
	d="
M456.000000,534.120605 
	C456.000000,531.983521 456.000000,530.329712 456.000000,528.717468 
	C461.616364,527.479980 461.967041,527.708557 461.991913,532.873413 
	C462.024719,539.687256 462.000000,546.501465 462.000000,554.000122 
	C465.031708,554.000122 467.996582,553.684753 470.842865,554.129028 
	C472.334259,554.361816 473.617615,555.927307 474.994934,556.890930 
	C473.690643,557.927246 472.447113,559.751099 471.071106,559.857239 
	C466.286743,560.226318 461.456451,559.999817 456.000000,559.999817 
	C456.000000,551.431763 456.000000,543.017822 456.000000,534.120605 
z"/>
<path fill="#0B0146" opacity="1.000000" stroke="none" 
	d="
M446.000000,554.845215 
	C446.000000,545.723022 446.000000,537.083313 446.000000,528.387512 
	C450.574585,527.152710 452.273224,528.534424 452.079163,533.158325 
	C451.778992,540.309448 451.786041,547.491211 452.078705,554.642944 
	C452.259857,559.070129 450.913208,560.936646 446.000000,559.617188 
	C446.000000,558.260620 446.000000,556.794189 446.000000,554.845215 
z"/>
<path fill="#FEFDFE" opacity="1.000000" stroke="none" 
	d="
M442.214142,209.231171 
	C436.331818,224.437363 430.540283,239.260223 424.846069,254.120361 
	C423.662994,257.207855 422.691711,260.395813 421.879059,263.602417 
	C419.176178,274.267700 420.196930,276.067810 430.757935,279.686371 
	C434.724915,270.046906 438.446838,260.285583 442.718597,250.771088 
	C451.778778,230.591248 465.591064,215.386383 487.803772,209.562271 
	C501.589844,205.947601 515.593567,206.005707 529.299194,209.349777 
	C553.378052,215.224884 564.488281,233.418945 558.475891,257.597351 
	C556.478149,265.631195 552.732361,273.545349 548.303772,280.581482 
	C542.531494,289.752472 533.320557,288.404938 528.813904,278.533752 
	C520.380432,260.061096 501.809692,249.189911 481.718811,250.956238 
	C472.076599,251.803955 464.397461,256.529755 457.988434,263.399353 
	C451.979706,269.839874 446.288269,276.576385 440.108307,283.577942 
	C444.081879,285.899841 447.766998,288.008636 451.408417,290.190308 
	C458.781708,294.607880 459.071228,297.893066 452.635010,303.419434 
	C449.225616,306.346954 445.918823,309.403503 442.392059,312.181335 
	C440.041229,314.032959 439.537720,315.808289 440.929321,318.558105 
	C444.766602,326.140350 450.872711,330.502014 459.179810,331.580414 
	C463.654663,332.161346 467.470367,330.197723 469.816620,326.409607 
	C472.069702,322.771881 473.485229,318.619232 475.696869,314.950928 
	C477.974701,311.172882 480.296509,307.203613 483.457642,304.231018 
	C487.413208,300.511383 492.493958,298.097137 498.034729,301.027039 
	C503.646240,303.994415 503.929962,309.724701 503.529572,315.006012 
	C502.141724,333.311310 488.815125,345.890686 470.149719,347.004700 
	C450.140045,348.198883 439.392242,341.760773 431.067352,323.594116 
	C430.310974,321.943604 429.552124,320.294189 428.622406,318.269745 
	C424.000824,319.510284 419.429749,320.737244 414.146759,322.155304 
	C418.310150,329.273651 422.043884,336.055176 426.160217,342.595886 
	C431.458221,351.014313 431.843201,357.488068 426.889343,362.631378 
	C419.997528,369.786682 410.972046,371.230377 402.940369,366.462067 
	C392.115570,360.035522 390.916870,354.205383 397.666016,343.571564 
	C401.914764,336.877258 405.615356,329.835052 409.871704,322.408234 
	C404.673370,320.847046 400.282379,319.528320 395.700348,318.152222 
	C393.696686,321.974365 391.950928,325.898071 389.697815,329.504822 
	C376.569672,350.519501 346.430389,353.781525 329.378784,336.098785 
	C321.738098,328.175262 319.622284,318.463806 321.030334,307.951416 
	C322.062897,300.242401 333.152344,296.989105 339.874359,302.418365 
	C342.265961,304.349976 344.191040,307.051575 345.788605,309.724701 
	C347.736267,312.983643 349.641205,316.436890 350.646393,320.060760 
	C354.715546,334.730194 366.168152,332.570282 375.070953,327.858093 
	C376.929779,326.874268 378.562927,325.279785 379.983246,323.684570 
	C385.520691,317.465363 385.343567,315.385254 379.233734,310.078461 
	C375.839966,307.130737 372.373352,304.252228 369.154999,301.121063 
	C365.709503,297.768890 365.962982,294.815155 369.962128,292.087769 
	C373.785767,289.480103 377.840912,287.211914 381.737396,284.829315 
	C375.676147,266.063721 358.651184,252.448532 339.849213,251.140228 
	C321.505951,249.863831 304.643372,259.984528 295.975647,277.472595 
	C290.462585,288.595764 281.881592,289.729919 274.471313,279.679108 
	C262.237488,263.085907 261.394684,244.886276 269.292603,226.351273 
	C272.799042,218.122330 280.197113,213.399124 288.638977,211.000336 
	C306.676697,205.874847 324.903900,205.856476 342.693634,211.696869 
	C362.484375,218.194168 373.664307,233.910721 382.186920,251.728271 
	C386.394073,260.523865 389.715515,269.743134 393.431091,278.773468 
	C401.994049,278.176697 405.262177,274.636383 402.785339,266.698547 
	C398.841034,254.057816 393.858673,241.743912 389.447845,229.245010 
	C384.204620,214.387360 379.215057,199.439590 373.902954,184.607010 
	C369.389465,172.004318 369.537476,159.435715 374.119507,147.035583 
	C382.471222,124.433784 396.296387,105.203369 412.053436,86.504822 
	C429.638214,107.909126 446.148254,129.517639 452.559723,156.792694 
	C455.036743,167.330307 453.071533,178.011917 449.705627,188.259262 
	C447.430542,195.185745 444.807098,201.997833 442.214142,209.231171 
z"/>
<path fill="#F7F6F9" opacity="1.000000" stroke="none" 
	d="
M282.024078,147.989044 
	C290.077118,149.872925 292.340088,144.931274 293.895203,138.187790 
	C295.497314,146.503571 299.646484,150.366531 308.498383,147.993088 
	C301.700317,151.750931 297.812012,156.106735 302.580261,164.344406 
	C296.145020,157.804535 290.751617,159.305984 285.502533,165.353989 
	C285.340240,164.198715 285.114349,163.728561 285.258820,163.451706 
	C288.365692,157.498337 288.310150,152.533768 281.128235,149.642532 
	C281.086304,149.625656 281.465210,148.563339 282.024078,147.989044 
z"/>
<path fill="#F4F2F6" opacity="1.000000" stroke="none" 
	d="
M284.566284,77.996994 
	C284.404266,77.458870 284.580841,76.744072 284.617279,76.751137 
	C290.161743,77.827538 292.837341,75.017326 293.895874,69.419563 
	C295.430389,74.693115 297.713257,78.348587 304.448822,76.780296 
	C299.038239,79.516434 297.513367,83.179169 300.452545,88.776787 
	C296.206238,84.905792 292.378052,84.039467 288.018311,88.573563 
	C289.076202,84.077354 289.979126,79.995056 284.566284,77.996994 
z"/>
<path fill="#F2F1F4" opacity="1.000000" stroke="none" 
	d="
M323.013916,109.006310 
	C324.584656,104.355865 324.444153,100.312561 317.509460,98.306847 
	C325.938080,97.238754 325.938080,97.238754 329.374512,90.300781 
	C330.464874,95.826218 332.843262,99.272820 339.395447,97.808403 
	C333.542664,100.800003 332.927856,104.840027 335.709229,110.178711 
	C331.466187,105.899597 327.515564,105.461655 323.215210,109.224045 
	C322.953461,108.967529 323.013916,109.006310 323.013916,109.006310 
z"/>
<path fill="#EDEAEF" opacity="1.000000" stroke="none" 
	d="
M268.368195,114.558044 
	C267.957458,114.736069 267.291748,115.172203 267.172852,115.054756 
	C263.057068,110.989708 259.167572,111.843063 254.942093,115.944824 
	C257.825012,110.492905 257.352112,106.369743 251.066177,103.677811 
	C257.188202,104.092209 261.116577,102.547226 261.360016,95.661255 
	C263.169189,100.866203 265.101135,105.248421 272.015503,103.170364 
	C268.878693,106.379829 264.296265,108.833313 268.181885,114.275864 
	C268.295959,114.623413 268.368195,114.558044 268.368195,114.558044 
z"/>
<path fill="#E4E0E7" opacity="1.000000" stroke="none" 
	d="
M314.029877,128.959610 
	C311.856201,129.074646 309.682556,129.189667 307.168640,129.096069 
	C306.828400,128.887436 306.755096,128.907501 306.755096,128.907501 
	C306.531006,126.836121 306.306915,124.764732 306.055786,122.443558 
	C306.984192,121.836281 308.871185,120.601982 310.805115,119.336960 
	C311.985718,120.231094 313.905609,121.685173 315.683594,123.031784 
	C315.339691,124.252899 314.769562,126.277390 314.093384,128.655518 
	C313.987396,129.009140 314.029877,128.959610 314.029877,128.959610 
z"/>
<path fill="#F2F1F4" opacity="1.000000" stroke="none" 
	d="
M322.921387,108.951324 
	C322.914185,109.159805 322.939056,109.384491 322.963928,109.609177 
	C322.850586,109.467239 322.737244,109.325310 322.818909,109.094849 
	C323.013916,109.006310 322.953461,108.967529 322.921387,108.951324 
z"/>
<path fill="#EDEAEF" opacity="1.000000" stroke="none" 
	d="
M268.343689,114.628319 
	C268.391388,114.633224 268.259979,115.000114 268.259979,115.000114 
	C268.259979,115.000114 268.286957,114.835960 268.327576,114.697006 
	C268.368195,114.558044 268.295959,114.623413 268.343689,114.628319 
z"/>
<path fill="#E4E0E7" opacity="1.000000" stroke="none" 
	d="
M306.837067,128.850433 
	C306.845734,128.813446 306.774963,129.041504 306.774963,129.041504 
	C306.774963,129.041504 306.925873,128.927536 306.840485,128.917511 
	C306.755096,128.907501 306.828400,128.887436 306.837067,128.850433 
z"/>
<path fill="#E4E0E7" opacity="1.000000" stroke="none" 
	d="
M313.965088,129.032928 
	C314.180176,129.143982 314.417603,129.231232 314.655029,129.318466 
	C314.461060,129.343933 314.267090,129.369400 314.051514,129.177246 
	C314.029877,128.959610 313.987396,129.009140 313.965088,129.032928 
z"/>
<path fill="#FFFFFF" opacity="1.000000" stroke="none" 
	d="
M540.647827,486.840698 
	C537.182861,487.988007 534.015686,488.872742 530.306458,489.908875 
	C530.306458,485.386414 530.306458,481.876038 530.306458,477.939911 
	C534.370605,479.012268 539.546265,475.338898 541.885376,481.275970 
	C542.446045,482.699036 541.304382,484.792786 540.647827,486.840698 
z"/>
<path fill="#FFFFFF" opacity="1.000000" stroke="none" 
	d="
M355.933228,478.000000 
	C358.301208,478.226501 360.646423,477.855408 362.009369,478.841675 
	C363.476776,479.903503 365.260223,483.108643 364.737152,483.851440 
	C363.239410,485.978271 360.830170,487.740356 358.413452,488.846375 
	C356.780151,489.593903 354.527863,488.988953 351.402588,488.988953 
	C354.114563,485.366669 347.950500,479.831726 355.933228,478.000000 
z"/>
<path fill="#FFFFFF" opacity="1.000000" stroke="none" 
	d="
M591.712280,493.755005 
	C593.172363,490.666260 594.393005,487.894958 596.029358,484.179779 
	C597.863464,488.014526 599.444946,491.321014 601.458130,495.530273 
	C597.494507,494.951569 594.483704,494.511993 591.712280,493.755005 
z"/>
<path fill="#FFFFFF" opacity="1.000000" stroke="none" 
	d="
M434.254639,492.345428 
	C435.770081,489.479919 437.066284,486.936584 438.390747,484.337738 
	C439.977844,487.772705 441.520050,491.110474 443.219360,494.788269 
	C439.705444,494.788269 436.633545,494.788269 433.486237,494.788269 
	C433.653137,494.143677 433.844238,493.405670 434.254639,492.345428 
z"/>
<path fill="#FFFFFF" opacity="1.000000" stroke="none" 
	d="
M331.846985,487.642151 
	C328.697235,489.262695 325.809052,490.580658 322.197754,492.228638 
	C322.197754,486.643555 322.197754,482.581146 322.197754,478.529999 
	C331.177856,477.132599 334.472565,480.091980 331.846985,487.642151 
z"/>
<path fill="#FFFFFF" opacity="1.000000" stroke="none" 
	d="
M342.035156,548.188293 
	C344.779846,547.517090 347.571594,546.845642 350.179596,547.279297 
	C351.604614,547.516296 352.718628,549.623596 353.972900,550.887512 
	C352.503998,551.924805 351.159393,553.485535 349.535767,553.870972 
	C347.353912,554.388977 344.956573,553.999329 342.005615,553.999329 
	C342.005615,552.126343 342.005615,550.387573 342.035156,548.188293 
z"/>
<path fill="#FFFFFF" opacity="1.000000" stroke="none" 
	d="
M346.729065,541.000000 
	C345.000977,541.000000 343.715485,541.000000 342.217072,541.000000 
	C342.217072,538.595337 342.217072,536.528625 342.217072,534.021240 
	C346.033875,534.740540 350.744415,531.712891 352.692596,537.267944 
	C352.879578,537.800964 349.106415,539.722839 346.729065,541.000000 
z"/>
<path fill="#FFFFFF" opacity="1.000000" stroke="none" 
	d="
M373.786377,534.000000 
	C378.034363,533.354187 380.878754,535.741150 380.400085,538.740906 
	C379.524109,544.230835 374.570801,543.087708 369.614990,542.800659 
	C371.827698,539.990845 366.437927,535.055786 373.786377,534.000000 
z"/>
<path fill="#FFFFFF" opacity="1.000000" stroke="none" 
	d="
M406.571960,548.999390 
	C404.526947,549.000000 402.893219,549.000000 400.804413,549.000000 
	C402.147278,545.866089 403.317657,543.134705 404.863251,539.527649 
	C406.190338,542.655212 407.345856,545.318787 408.388611,548.025818 
	C408.436859,548.151184 407.474823,548.665649 406.571960,548.999390 
z"/>
</svg>